<svg width="1600" height="1200" viewBox="0 0 1600 1200" fill="none" xmlns="http://www.w3.org/2000/svg">
  <defs>
    <radialGradient id="heroBlue" cx="0" cy="0" r="1" gradientUnits="userSpaceOnUse" gradientTransform="translate(1188 196) rotate(136.9) scale(436 336)">
      <stop stop-color="#69B7FF" stop-opacity="0.24"/>
      <stop offset="1" stop-color="#69B7FF" stop-opacity="0"/>
    </radialGradient>
    <radialGradient id="heroMint" cx="0" cy="0" r="1" gradientUnits="userSpaceOnUse" gradientTransform="translate(286 922) rotate(8.3) scale(398 274)">
      <stop stop-color="#23B39A" stop-opacity="0.18"/>
      <stop offset="1" stop-color="#23B39A" stop-opacity="0"/>
    </radialGradient>
    <radialGradient id="heroWhite" cx="0" cy="0" r="1" gradientUnits="userSpaceOnUse" gradientTransform="translate(776 500) rotate(90) scale(462 720)">
      <stop stop-color="white" stop-opacity="0.74"/>
      <stop offset="1" stop-color="white" stop-opacity="0"/>
    </radialGradient>
    <linearGradient id="flowA" x1="190" y1="914" x2="1364" y2="216" gradientUnits="userSpaceOnUse">
      <stop stop-color="#1CA08A" stop-opacity="0.08"/>
      <stop offset="0.56" stop-color="#90C9FF" stop-opacity="0.24"/>
      <stop offset="1" stop-color="#2E7CDC" stop-opacity="0.12"/>
    </linearGradient>
    <linearGradient id="flowB" x1="304" y1="1023" x2="1244" y2="188" gradientUnits="userSpaceOnUse">
      <stop stop-color="#FFFFFF" stop-opacity="0.18"/>
      <stop offset="0.48" stop-color="#FFFFFF" stop-opacity="0.62"/>
      <stop offset="1" stop-color="#FFFFFF" stop-opacity="0"/>
    </linearGradient>
    <filter id="blurGlow" x="-120" y="-120" width="1840" height="1440" filterUnits="userSpaceOnUse" color-interpolation-filters="sRGB">
      <feGaussianBlur stdDeviation="34"/>
    </filter>
  </defs>

  <g filter="url(#blurGlow)">
    <circle cx="1188" cy="196" r="248" fill="url(#heroBlue)"/>
    <circle cx="286" cy="922" r="224" fill="url(#heroMint)"/>
    <ellipse cx="776" cy="500" rx="344" ry="220" fill="url(#heroWhite)"/>
  </g>

  <g opacity="0.72">
    <path d="M154 939C292 845 418 790 574 676C714 575 862 449 1007 369C1112 311 1226 251 1393 160" stroke="url(#flowA)" stroke-width="1.8"/>
    <path d="M122 836C303 732 448 668 594 555C754 431 924 293 1145 220C1238 189 1323 178 1460 155" stroke="url(#flowB)" stroke-width="1.3"/>
    <path d="M302 1030C426 939 579 846 692 737C790 642 873 547 969 489C1085 420 1219 389 1365 312" stroke="url(#flowA)" stroke-width="1.15" stroke-dasharray="4 12"/>
  </g>

  <g opacity="0.3">
    <circle cx="302" cy="838" r="6" fill="#6CB9FF"/>
    <circle cx="468" cy="730" r="5" fill="#22A38D"/>
    <circle cx="639" cy="608" r="5" fill="#9FD2FF"/>
    <circle cx="824" cy="486" r="7" fill="#FFFFFF"/>
    <circle cx="1026" cy="373" r="6" fill="#7BBEFF"/>
    <circle cx="1218" cy="273" r="6" fill="#29AF98"/>
    <circle cx="1361" cy="191" r="5" fill="#FFFFFF"/>
  </g>

  <g opacity="0.1">
    <path d="M1090 473C1151 385 1260 365 1329 408C1396 448 1404 540 1336 615C1273 684 1164 717 1084 682C1002 647 987 556 1043 495C1089 445 1163 441 1205 479" stroke="#2E7CDC" stroke-width="8" stroke-linecap="round"/>
    <path d="M1112 505H1156L1189 460L1230 562L1260 505H1297" stroke="#169B86" stroke-width="8" stroke-linecap="round" stroke-linejoin="round"/>
  </g>
</svg>
